<?xml version="1.0" encoding="UTF-8" standalone="no"?>
<!DOCTYPE svg PUBLIC "-//W3C//DTD SVG 1.1//EN" "http://www.w3.org/Graphics/SVG/1.1/DTD/svg11.dtd">
<svg width="100%" height="100%" viewBox="0 0 200 100" version="1.1" xmlns="http://www.w3.org/2000/svg" xmlns:xlink="http://www.w3.org/1999/xlink" xml:space="preserve" xmlns:serif="http://www.serif.com/" style="fill-rule:evenodd;clip-rule:evenodd;stroke-linejoin:round;stroke-miterlimit:2;">
    <path d="M200,5.313L200,94.687C200,97.619 197.619,100 194.687,100L5.313,100C2.381,100 0,97.619 0,94.687L0,5.313C0,2.381 2.381,0 5.313,0L194.687,0C197.619,0 200,2.381 200,5.313ZM197.917,5.313C197.917,3.531 196.469,2.083 194.687,2.083L5.313,2.083C3.531,2.083 2.083,3.531 2.083,5.313L2.083,94.687C2.083,96.469 3.531,97.917 5.313,97.917L194.687,97.917C196.469,97.917 197.917,96.469 197.917,94.687L197.917,5.313Z" style="fill:rgb(248,249,250);"/>
    <g>
        <text x="9.05px" y="68.05px" style="font-family:'SourceSans3-Roman', 'Source Sans 3', sans-serif;font-weight:200;font-size:50px;fill:rgb(227,5,19);">S<tspan x="33.85px " y="68.05px ">T</tspan>T</text>
        <text x="81.85px" y="68.05px" style="font-family:'SourceSans3-Roman', 'Source Sans 3', sans-serif;font-weight:200;font-size:50px;fill:rgb(248,249,250);">-</text>
        <g transform="matrix(50,0,0,50,190.95,68.05)">
        </g>
        <text x="96.55px" y="68.05px" style="font-family:'SourceSans3-Roman', 'Source Sans 3', sans-serif;font-weight:200;font-size:50px;fill:rgb(255,193,3);">2200</text>
    </g>
</svg>
